<?xml version="1.0" standalone="no"?>
<!DOCTYPE svg PUBLIC "-//W3C//DTD SVG 20010904//EN"
 "http://www.w3.org/TR/2001/REC-SVG-20010904/DTD/svg10.dtd">
<svg version="1.0" xmlns="http://www.w3.org/2000/svg"
 width="225.000000pt" height="225.000000pt" viewBox="0 0 225.000000 225.000000"
 preserveAspectRatio="xMidYMid meet">

<g transform="translate(0.000000,225.000000) scale(0.100000,-0.100000)"
fill="#000000" stroke="none">
<path d="M915 2040 c-117 -19 -251 -93 -325 -178 -88 -103 -130 -220 -130
-363 l0 -88 -52 -15 c-66 -19 -112 -52 -154 -111 -61 -87 -68 -190 -18 -292
49 -102 140 -153 269 -153 l71 0 18 -57 c34 -107 57 -133 86 -98 10 12 8 27
-9 77 -12 34 -21 65 -21 70 0 4 246 9 548 10 l547 3 65 31 c38 18 86 53 117
84 201 202 143 541 -114 663 -64 30 -76 32 -183 33 -111 1 -114 2 -121 25 -16
61 -81 161 -143 221 -43 41 -141 99 -201 117 -75 23 -182 32 -250 21z m198
-75 c167 -43 302 -177 346 -341 6 -23 17 -44 25 -47 8 -3 36 1 63 9 148 47
337 -43 405 -193 33 -72 32 -219 -2 -288 -36 -74 -101 -138 -173 -171 l-62
-29 -610 -3 c-335 -2 -629 0 -651 3 -134 19 -221 177 -168 303 31 74 109 131
185 134 44 1 74 22 65 44 -3 8 -8 42 -12 77 -16 157 59 322 189 420 118 89
261 118 400 82z"/>
<path d="M1004 765 c-7 -17 19 -110 43 -157 15 -31 50 -38 59 -13 4 8 -7 52
-22 98 -24 67 -33 83 -52 85 -13 2 -25 -3 -28 -13z"/>
<path d="M1534 750 c-37 -15 -64 -59 -64 -106 0 -103 120 -152 193 -78 89 89
-11 232 -129 184z m74 -66 c28 -19 28 -58 1 -78 -23 -16 -47 -12 -66 12 -18
22 -16 39 7 62 24 24 29 24 58 4z"/>
<path d="M723 484 c-3 -9 6 -54 21 -100 24 -75 30 -84 52 -84 37 0 39 22 8
113 -24 67 -33 83 -52 85 -14 2 -25 -3 -29 -14z"/>
<path d="M1104 396 c-27 -27 -34 -42 -34 -72 0 -53 19 -86 60 -107 45 -23 95
-16 131 19 77 74 23 194 -87 194 -28 0 -44 -8 -70 -34z m108 -43 c21 -18 24
-53 6 -71 -27 -27 -88 -3 -88 34 0 17 35 54 52 54 6 0 20 -7 30 -17z"/>
</g>
</svg>
